<svg width="192" height="192" viewBox="0 0 192 192" fill="none" xmlns="http://www.w3.org/2000/svg">
<rect width="192" height="192" fill="white"/>
<path d="M68.0588 108.381L68.1787 108.171H67.9388L68.0588 108.381Z" fill="white"/>
<path d="M8 108.171L38.0856 160.282L41.4199 154.513L14.6589 108.171H8Z" fill="white"/>
<path d="M48.0801 142.973L27.9876 108.171H21.3191L44.7459 148.743L48.0801 142.973Z" fill="white"/>
<path d="M54.7373 131.443L41.3036 108.171H34.6448L51.4031 137.213L54.7373 131.443Z" fill="white"/>
<path d="M61.3961 119.904L54.6213 108.171H47.9624L58.0618 125.674L61.3961 119.904Z" fill="white"/>
<path d="M68.0562 108.374L67.9402 108.171H61.2814L64.7219 114.144L68.0562 108.374Z" fill="white"/>
<path d="M121.239 29L43.8547 163.028H106.616L184 29H121.239Z" fill="white"/>
</svg>
